<svg width="30" height="30" viewBox="0 0 30 30" fill="none" xmlns="http://www.w3.org/2000/svg">
<path d="M15.25 29.5C23.3962 29.5 30 22.8962 30 14.75C30 6.6038 23.3962 0 15.25 0C7.1038 0 0.5 6.6038 0.5 14.75C0.5 22.8962 7.1038 29.5 15.25 29.5Z" fill="#6DA544"/>
<path d="M15.25 5.77173L27.4348 14.75L15.25 23.7282L3.06523 14.75L15.25 5.77173Z" fill="#FFDA44"/>
<path d="M15.25 19.8804C18.0835 19.8804 20.3804 17.5834 20.3804 14.75C20.3804 11.9165 18.0835 9.61957 15.25 9.61957C12.4166 9.61957 10.1196 11.9165 10.1196 14.75C10.1196 17.5834 12.4166 19.8804 15.25 19.8804Z" fill="#F0F0F0"/>
<path d="M12.6848 14.4293C11.7926 14.4293 10.9316 14.565 10.1212 14.8168C10.1571 17.6193 12.439 19.8804 15.25 19.8804C16.9882 19.8804 18.5233 19.0152 19.4514 17.6928C17.8636 15.7052 15.4206 14.4293 12.6848 14.4293Z" fill="#0052B4"/>
<path d="M20.2853 15.7329C20.3471 15.4146 20.3805 15.0863 20.3805 14.75C20.3805 11.9165 18.0835 9.61957 15.2501 9.61957C13.1359 9.61957 11.3209 10.8987 10.5355 12.7251C11.2298 12.5812 11.9486 12.5054 12.6849 12.5054C15.6647 12.5054 18.3604 13.744 20.2853 15.7329Z" fill="#0052B4"/>
</svg>
