<svg width="30" height="30" viewBox="0 0 30 30" fill="none" xmlns="http://www.w3.org/2000/svg">
<path d="M0.91745 19.8804C3.00152 25.4972 8.40803 29.5 14.75 29.5C21.092 29.5 26.4985 25.4972 28.5826 19.8804L14.75 18.5978L0.91745 19.8804Z" fill="#FFDA44"/>
<path d="M14.75 0C8.40803 0 3.00152 4.00278 0.91745 9.61959L14.75 10.9022L28.5826 9.61953C26.4985 4.00278 21.092 0 14.75 0Z" fill="black"/>
<path d="M0.917438 9.61957C0.324558 11.2175 0 12.9458 0 14.75C0 16.5542 0.324558 18.2825 0.917438 19.8804H28.5826C29.1755 18.2825 29.5 16.5542 29.5 14.75C29.5 12.9458 29.1755 11.2175 28.5826 9.61957H0.917438Z" fill="#D80027"/>
</svg>
