<svg width="512" height="449" viewBox="0 0 512 449" fill="none" xmlns="http://www.w3.org/2000/svg">
<path d="M294.358 63.307L294.364 63.3009L294.37 63.2947C336.276 20.0562 402.28 14.6207 445.427 51.3814C496.645 95.1019 499.435 173.929 453.428 221.407L453.423 221.412L259.928 421.207C257.644 423.564 254.256 423.564 251.972 421.207L58.4878 221.423C58.4861 221.422 58.4845 221.42 58.4828 221.418C58.4808 221.416 58.4788 221.414 58.4769 221.412C12.5618 173.932 15.3568 95.1006 66.5729 51.3814C109.73 14.612 175.822 20.0712 217.612 63.2762L217.627 63.2916L217.642 63.307L237.342 83.607L256 102.834L274.658 83.607L294.358 63.307Z" stroke="#FE9F99" stroke-width="52"/>
</svg>
