<svg width="59" height="59" viewBox="0 0 59 59" fill="none" xmlns="http://www.w3.org/2000/svg">
<path d="M33.9675 25.3968H25.0325C24.6753 23.023 22.6212 21.1965 20.1495 21.1965C17.427 21.1965 15.2117 23.4119 15.2117 26.1343C15.2117 27.4062 15.687 28.5931 16.5397 29.4999C15.687 30.4066 15.2117 31.5936 15.2117 32.8655C15.2117 35.5879 17.427 37.8032 20.1495 37.8032C22.6241 37.8032 24.6796 35.9732 25.0332 33.5734H33.9632C34.3074 35.9617 36.368 37.8032 38.8505 37.8032C41.573 37.8032 43.7883 35.5879 43.7883 32.8655C43.7883 31.5936 43.313 30.4066 42.4603 29.4999C43.313 28.5931 43.7883 27.4062 43.7883 26.1343C43.7883 23.4119 41.573 21.1965 38.8505 21.1965C36.3788 21.1965 34.3247 23.023 33.9675 25.3968ZM42.3133 26.1343C42.3133 27.2348 41.8042 28.246 40.9154 28.9086C40.7289 29.0476 40.6187 29.2673 40.6187 29.4999C40.6187 29.7325 40.7289 29.9522 40.9154 30.0912C41.8042 30.7538 42.3133 31.765 42.3133 32.8655C42.3133 34.7747 40.7598 36.3282 38.8505 36.3282C36.9413 36.3282 35.3878 34.7747 35.3878 32.8655V32.8359C35.3878 32.4283 35.0579 32.0984 34.6503 32.0984H24.3497C23.9421 32.0984 23.6122 32.4578 23.6122 32.8655C23.6122 34.7747 22.0587 36.3282 20.1495 36.3282C18.2402 36.3282 16.6867 34.7747 16.6867 32.8655C16.6867 31.765 17.1959 30.7538 18.0846 30.0912C18.2711 29.9522 18.3813 29.7325 18.3813 29.4999C18.3813 29.2673 18.2711 29.0476 18.0846 28.9086C17.1959 28.246 16.6867 27.2348 16.6867 26.1343C16.6867 24.225 18.2402 22.6715 20.1495 22.6715C22.0587 22.6715 23.6122 24.225 23.6122 26.1343C23.6122 26.542 23.9421 26.8718 24.3497 26.8718H34.6503C35.0579 26.8718 35.3878 26.542 35.3878 26.1343C35.3878 24.225 36.9413 22.6715 38.8505 22.6715C40.7598 22.6715 42.3133 24.225 42.3133 26.1343Z" fill="#37475A"/>
<path d="M58.2625 17.4026H41.5975V0.7375C41.5975 0.329858 41.2676 0 40.86 0H18.1401C17.7324 0 17.4026 0.329858 17.4026 0.7375V17.4026H0.7375C0.329858 17.4026 0 17.7324 0 18.1401V40.86C0 41.2676 0.329858 41.5975 0.7375 41.5975H17.4026V58.2625C17.4026 58.6701 17.7324 59 18.1401 59H40.86C41.2676 59 41.5975 58.6701 41.5975 58.2625V41.5975H58.2625C58.6701 41.5975 59 41.2676 59 40.86V18.1401C59 17.7324 58.6701 17.4026 58.2625 17.4026ZM57.525 40.1224H40.86C40.4523 40.1224 40.1224 40.4523 40.1224 40.86V57.525H18.8776V40.86C18.8776 40.4523 18.5477 40.1224 18.1401 40.1224H1.475V18.8776H18.1401C18.5477 18.8776 18.8776 18.5477 18.8776 18.1401V1.475H40.1224V18.1401C40.1224 18.5477 40.4523 18.8776 40.86 18.8776H57.525V40.1224Z" fill="#37475A"/>
</svg>
