<svg width="59" height="68" viewBox="0 0 59 68" fill="none" xmlns="http://www.w3.org/2000/svg">
<path d="M29.9103 67.7938C34.9746 67.7938 39.0946 63.6738 39.0946 58.6104V47.5993C40.8994 47.4755 42.3338 45.9835 42.3338 44.149V40.6284C46.1155 39.8171 49.7158 37.9606 52.6481 35.0283C60.7116 26.9647 60.7489 13.875 52.7744 5.75462L52.9337 4.39148C53.0558 3.35047 52.7625 2.32303 52.1089 1.49649C51.4553 0.669962 50.5228 0.14861 49.4818 0.027385C48.4459 -0.0938398 47.4142 0.198625 46.5877 0.852223C45.7611 1.50582 45.2398 2.43832 45.1185 3.47933L44.8939 5.40112C44.7718 6.44213 45.0651 7.46958 45.7187 8.29611C46.3723 9.12264 47.3048 9.64399 48.3458 9.76522C48.5001 9.78302 48.6527 9.79235 48.8045 9.79235C50.2727 9.79235 51.5926 8.96751 52.2657 7.71881C58.8653 15.2136 58.6067 26.6731 51.4494 33.8305C44.0012 41.2778 31.8813 41.2778 24.4332 33.8305C17.2267 26.624 17.0147 15.0584 23.7533 7.56706C24.4001 8.89799 25.7573 9.7915 27.2832 9.7915C27.435 9.7915 27.5876 9.78302 27.7418 9.76437C29.8959 9.5126 31.4439 7.5552 31.1929 5.40028L30.9674 3.47848C30.8462 2.43832 30.3249 1.50497 29.4992 0.851375C28.6735 0.197778 27.6444 -0.0938402 26.6042 0.026537C25.5632 0.14861 24.6315 0.669961 23.9771 1.49565C23.3235 2.32218 23.031 3.34962 23.1523 4.39063L23.2904 5.5766C23.2726 5.59186 23.2506 5.5978 23.2336 5.6139C15.1251 13.7233 15.1251 26.9181 23.2336 35.0275C26.3363 38.1301 30.185 40.0358 34.2066 40.764V44.1482C34.2066 45.9665 35.6164 47.4467 37.3983 47.5942V58.6095C37.3983 62.7388 34.0388 66.0975 29.9095 66.0975C25.7811 66.0975 22.4215 62.738 22.4215 58.6095V51.5064C22.4215 46.4421 18.3016 42.323 13.2372 42.323C8.33569 42.323 4.32934 46.1861 4.07756 51.0266C1.80481 51.1877 0 53.0679 0 55.3805V56.4139C0 58.8325 1.96673 60.7992 4.38529 60.7992H5.41782C7.83638 60.7992 9.80311 58.8325 9.80311 56.4139V55.3805C9.80311 53.084 8.02288 51.2157 5.77302 51.0317C6.02055 47.1245 9.26904 44.0193 13.2381 44.0193C17.3674 44.0193 20.7269 47.3788 20.7269 51.5073V58.6104C20.7269 63.6738 24.846 67.7938 29.9103 67.7938ZM48.5425 8.07994C47.9516 8.01042 47.421 7.71372 47.0488 7.24239C46.6767 6.77105 46.5088 6.18696 46.5775 5.5961L46.8021 3.6743C46.8708 3.08344 47.1692 2.55361 47.6388 2.18061C48.1102 1.80761 48.696 1.64146 49.2843 1.71012C49.8751 1.77964 50.4058 2.07634 50.778 2.54768C51.1501 3.01901 51.318 3.6031 51.2493 4.19311L51.0247 6.11491C50.8822 7.34157 49.7607 8.21981 48.5425 8.07994ZM25.3072 2.54852C25.6785 2.07719 26.2092 1.78048 26.8009 1.71097C26.8882 1.7008 26.9747 1.69571 27.062 1.69571C27.5621 1.69571 28.0453 1.86441 28.4472 2.18146C28.9185 2.55361 29.2152 3.08344 29.2839 3.67515L29.5094 5.59695C29.6518 6.82276 28.771 7.93752 27.5452 8.08079C26.3211 8.22659 25.2055 7.34242 25.0613 6.1166L24.8367 4.19481C24.7672 3.60394 24.935 3.01901 25.3072 2.54852ZM35.9029 44.1482V41.0082C36.5802 41.0743 37.261 41.1099 37.9408 41.1099C38.8428 41.1099 39.7423 41.0302 40.6383 40.9141V44.149C40.6383 45.1298 39.8406 45.9284 38.8581 45.9284H37.6823C36.7015 45.9275 35.9029 45.1298 35.9029 44.1482ZM8.10766 55.3797V56.4131C8.10766 57.8966 6.90134 59.1029 5.41782 59.1029H4.38529C2.90262 59.1029 1.69545 57.8966 1.69545 56.4131V55.3797C1.69545 53.897 2.90262 52.6907 4.38529 52.6907H5.41782C6.90134 52.6907 8.10766 53.897 8.10766 55.3797Z" fill="#37475A"/>
<path d="M34.7983 32.4021C35.841 33.0277 37.0075 33.349 38.1934 33.349C38.7317 33.349 39.2743 33.2829 39.8101 33.1489C41.5259 32.72 42.9721 31.6485 43.8825 30.1319C44.7921 28.6153 45.0583 26.8351 44.6285 25.1193C43.7435 21.5775 40.139 19.4149 36.5997 20.3016C33.0579 21.1867 30.8962 24.7887 31.7821 28.3305C32.2119 30.0471 33.2826 31.4925 34.7983 32.4021ZM37.0109 21.9471C37.411 21.847 37.8103 21.7996 38.2053 21.7996C40.4119 21.7996 42.4261 23.2958 42.9848 25.5313C43.3035 26.8071 43.1069 28.1312 42.4295 29.2596C41.7522 30.3879 40.6773 31.1848 39.4006 31.5035C38.1231 31.8231 36.8006 31.6256 35.6723 30.9482C34.5448 30.2718 33.7471 29.196 33.4284 27.9193C32.7688 25.2846 34.3761 22.6058 37.0109 21.9471Z" fill="#37475A"/>
<path d="M26.8729 17.85C26.0438 18.0568 25.3461 18.5739 24.907 19.3064C24.4679 20.0388 24.3399 20.8976 24.5476 21.7258C24.7544 22.554 25.2715 23.2517 26.004 23.6908C26.5075 23.9926 27.0704 24.1477 27.6426 24.1477C27.9029 24.1477 28.1648 24.1155 28.4234 24.0511C29.2525 23.8443 29.9501 23.3271 30.3893 22.5947C30.8292 21.8623 30.9572 21.0035 30.7496 20.1753C30.3206 18.4663 28.5811 17.4227 26.8729 17.85ZM28.9346 21.7232C28.7286 22.0666 28.4005 22.3099 28.0114 22.4074C27.6206 22.5065 27.2179 22.4447 26.8746 22.2387C26.5313 22.0318 26.2888 21.7046 26.1905 21.3155C26.0938 20.9272 26.1532 20.5229 26.36 20.1795C26.566 19.8354 26.8941 19.5929 27.2824 19.4954C27.4044 19.4649 27.5265 19.4505 27.6469 19.4505C28.3191 19.4505 28.9337 19.9066 29.1041 20.5881C29.2016 20.9756 29.1414 21.3791 28.9346 21.7232Z" fill="#37475A"/>
<path d="M33.8276 18.2611C34.0837 18.2611 34.3431 18.2297 34.6025 18.1653C36.3132 17.7381 37.3567 15.9985 36.9286 14.2887C36.5014 12.5796 34.7584 11.5378 33.0528 11.9625C31.3421 12.3898 30.2994 14.1293 30.7275 15.8392C31.0895 17.2905 32.3958 18.2611 33.8276 18.2611ZM33.4631 13.6088C33.5852 13.5783 33.7064 13.5639 33.8276 13.5639C34.4999 13.5639 35.1145 14.0199 35.2849 14.7015C35.4849 15.5043 34.995 16.3207 34.1922 16.5216C33.3894 16.7225 32.5722 16.2325 32.3721 15.4289C32.172 14.6252 32.6612 13.8089 33.4631 13.6088Z" fill="#37475A"/>
<path d="M44.1759 12.3237C43.4443 11.8845 42.583 11.7557 41.7564 11.9634C40.0457 12.3906 39.003 14.1302 39.4311 15.84C39.638 16.6683 40.1551 17.3659 40.8875 17.8051C41.3911 18.1068 41.954 18.262 42.5262 18.262C42.7864 18.262 43.0484 18.2298 43.3069 18.1653C45.0168 17.7381 46.0604 15.9986 45.6331 14.2895C45.4254 13.4613 44.9074 12.7628 44.1759 12.3237ZM42.8949 16.5207C42.5041 16.6199 42.1023 16.5572 41.7581 16.3521C41.4148 16.1452 41.1724 15.818 41.074 15.4289C40.9774 15.0406 41.0367 14.6363 41.2436 14.2929C41.4496 13.9487 41.7776 13.7063 42.1659 13.6088C42.288 13.5783 42.41 13.563 42.533 13.563C42.8017 13.563 43.0662 13.6359 43.3027 13.7775C43.646 13.9835 43.8885 14.3116 43.9868 14.7007C44.1877 15.5035 43.6969 16.3198 42.8949 16.5207Z" fill="#37475A"/>
<path d="M45.7018 21.6393C45.9078 22.4676 46.4258 23.1661 47.1573 23.6052C47.6609 23.907 48.2246 24.0621 48.7968 24.0621C49.0571 24.0621 49.319 24.0299 49.5776 23.9655C50.4067 23.7587 51.1044 23.2415 51.5435 22.5091C51.9826 21.7775 52.1106 20.9179 51.9029 20.0897C51.6961 19.2615 51.179 18.5629 50.4474 18.1238C49.7158 17.6847 48.8545 17.5567 48.028 17.7635C47.1989 17.9704 46.5012 18.4875 46.0621 19.2199C45.6221 19.9515 45.495 20.8111 45.7018 21.6393C45.7009 21.6393 45.7018 21.6393 45.7018 21.6393ZM48.4374 19.4081C48.5595 19.3776 48.6824 19.3623 48.8045 19.3623C49.0724 19.3623 49.3377 19.4352 49.5734 19.5768C49.9175 19.7828 50.16 20.1109 50.2583 20.5C50.355 20.8883 50.2956 21.2926 50.0888 21.6359C49.8828 21.9801 49.5547 22.2226 49.1665 22.3201C48.7765 22.4192 48.3721 22.3574 48.0297 22.1514C47.6863 21.9454 47.4439 21.6173 47.3464 21.229C47.3464 21.229 47.3455 21.229 47.3455 21.2282C47.1455 20.4254 47.6355 19.609 48.4374 19.4081Z" fill="#37475A"/>
</svg>
