<svg width="46" height="66" viewBox="0 0 46 66" fill="none" xmlns="http://www.w3.org/2000/svg">
<path d="M27.794 21.2508H18.206C17.8308 19.6195 16.3678 18.4006 14.6244 18.4006C12.5973 18.4006 10.9487 20.0492 10.9487 22.0755C10.9487 22.9076 11.2382 23.7125 11.7478 24.3566C11.2324 24.9982 10.9487 25.7957 10.9487 26.6427C10.9487 28.6698 12.5973 30.3183 14.6244 30.3183C16.3694 30.3183 17.8357 29.0953 18.2077 27.4484H27.789C28.1577 29.0887 29.6264 30.3183 31.3765 30.3183C33.4027 30.3183 35.0513 28.6698 35.0513 26.6427C35.0513 25.7957 34.7676 24.9982 34.2522 24.3566C34.7618 23.7133 35.0513 22.9076 35.0513 22.0755C35.0513 20.0492 33.4027 18.4006 31.3765 18.4006C29.6322 18.4006 28.1692 19.6204 27.794 21.2508ZM33.4011 22.0755C33.4011 22.7188 33.1034 23.3109 32.583 23.6985C32.3743 23.8535 32.2515 24.0993 32.2515 24.3599C32.2515 24.6205 32.3743 24.8654 32.583 25.0213C33.1034 25.4089 33.4011 26.001 33.4011 26.6435C33.4011 27.7601 32.4923 28.6698 31.3756 28.6698C30.259 28.6698 29.3493 27.7601 29.3493 26.6435V26.6245C29.3493 26.1685 28.9807 25.7998 28.5247 25.7998H17.4745C17.0185 25.7998 16.6498 26.1883 16.6498 26.6435C16.6498 27.7601 15.741 28.6698 14.6244 28.6698C13.5077 28.6698 12.5981 27.7601 12.5981 26.6435C12.5981 26.001 12.8958 25.4089 13.4162 25.0213C13.6248 24.8663 13.7477 24.6205 13.7477 24.3599C13.7477 24.0993 13.6248 23.8544 13.4162 23.6985C12.8958 23.3109 12.5981 22.7188 12.5981 22.0755C12.5981 20.9588 13.5077 20.05 14.6244 20.05C15.741 20.05 16.6498 20.9588 16.6498 22.0755C16.6498 22.5315 17.0185 22.9002 17.4745 22.9002H28.5247C28.9807 22.9002 29.3493 22.5315 29.3493 22.0755C29.3493 20.9588 30.259 20.05 31.3756 20.05C32.4923 20.05 33.4011 20.9588 33.4011 22.0755Z" fill="#37475A"/>
<path d="M23 0C20.3692 0 18.2291 2.14009 18.2291 4.77005V5.17003H13.4921C13.036 5.17003 12.6674 5.53867 12.6674 5.99473V7.66639H0.824698C0.36864 7.66639 0 8.03503 0 8.49109V65.1503C0 65.6064 0.36864 65.975 0.824698 65.975H45.1753C45.6314 65.975 46 65.6064 46 65.1503V8.49191C46 8.03586 45.6314 7.66722 45.1753 7.66722H33.3326V5.99555C33.3326 5.5395 32.964 5.17086 32.5079 5.17086H27.7709V4.77005C27.7701 2.13927 25.6308 0 23 0ZM44.3506 64.3264H1.64857V9.31661H5.55022V59.6751C5.55022 60.1312 5.91886 60.4998 6.37491 60.4998H39.6226C40.0787 60.4998 40.4473 60.1312 40.4473 59.6751V9.31661H44.349V64.3264H44.3506ZM38.7987 9.31661V58.8504H7.20044V9.31661H12.6674V11.7091C12.6674 12.1651 13.036 12.5338 13.4921 12.5338H32.5079C32.964 12.5338 33.3326 12.1651 33.3326 11.7091V9.31661H38.7987ZM31.6824 6.81943V10.8844H14.3168V6.81943H19.0538C19.5099 6.81943 19.8785 6.45079 19.8785 5.99473V4.77005C19.8785 3.04891 21.2789 1.6494 23 1.6494C24.7211 1.6494 26.1207 3.04891 26.1207 4.77005V5.99473C26.1207 6.45079 26.4893 6.81943 26.9454 6.81943H31.6824Z" fill="#37475A"/>
<path d="M34.3314 37.8519H11.6678C11.2118 37.8519 10.8431 38.2206 10.8431 38.6766C10.8431 39.1327 11.2118 39.5013 11.6678 39.5013H34.3314C34.7874 39.5013 35.1561 39.1327 35.1561 38.6766C35.1561 38.2206 34.7874 37.8519 34.3314 37.8519Z" fill="#37475A"/>
<path d="M34.3314 45.1744H11.6678C11.2118 45.1744 10.8431 45.5431 10.8431 45.9991C10.8431 46.4552 11.2118 46.8238 11.6678 46.8238H34.3314C34.7874 46.8238 35.1561 46.4552 35.1561 45.9991C35.1561 45.5431 34.7874 45.1744 34.3314 45.1744Z" fill="#37475A"/>
<path d="M34.3314 52.4969H11.6678C11.2118 52.4969 10.8431 52.8656 10.8431 53.3216C10.8431 53.7777 11.2118 54.1463 11.6678 54.1463H34.3314C34.7874 54.1463 35.1561 53.7777 35.1561 53.3216C35.1561 52.8656 34.7874 52.4969 34.3314 52.4969Z" fill="#37475A"/>
</svg>
