<svg width="58" height="58" viewBox="0 0 58 58" fill="none" xmlns="http://www.w3.org/2000/svg">
<path d="M26.3802 30.6155C26.3011 29.9415 25.999 29.3116 25.5045 28.8157C24.9245 28.235 24.1528 27.915 23.332 27.915C22.5112 27.915 21.7402 28.2343 21.1595 28.8164C20.1377 29.8403 19.9888 31.4121 20.7291 32.612L17.3289 36.0187C16.8465 35.7165 16.2886 35.5555 15.7065 35.5548C15.7058 35.5548 15.7058 35.5548 15.7058 35.5548C14.8857 35.5548 14.114 35.8747 13.5333 36.4561C12.3362 37.6553 12.3362 39.6062 13.5333 40.8047C14.0271 41.2999 14.6562 41.6028 15.3296 41.6833C15.4087 42.3573 15.7108 42.9865 16.2053 43.4824C16.7853 44.0631 17.5569 44.3831 18.3778 44.3831C19.1986 44.3831 19.9696 44.0638 20.5503 43.4824C21.5742 42.4571 21.7224 40.881 20.9942 39.696L24.3951 36.2887C24.8739 36.5851 25.4261 36.7433 26.0033 36.744C26.004 36.744 26.004 36.744 26.004 36.744C26.8241 36.7433 27.5958 36.4241 28.1765 35.8427C29.3735 34.6435 29.3735 32.6926 28.1765 31.4941C27.6827 30.9982 27.0543 30.6953 26.3802 30.6155ZM27.1675 34.8337C26.8562 35.1458 26.4436 35.3175 26.004 35.3175C25.5651 35.3168 25.1518 35.1458 24.8411 34.8344C24.7072 34.7005 24.5262 34.6249 24.3367 34.6249C24.1471 34.6249 23.9654 34.6998 23.8322 34.8344L19.5413 39.1331C19.2634 39.411 19.2634 39.8613 19.5413 40.1399C20.184 40.7826 20.184 41.8308 19.5413 42.4735C18.9193 43.0969 17.8348 43.0962 17.2142 42.4742C16.8437 42.103 16.6755 41.5906 16.7518 41.0669C16.7845 40.8446 16.7097 40.6195 16.5508 40.4606C16.4169 40.3259 16.2352 40.2518 16.0471 40.2518C16.0129 40.2518 15.9787 40.2546 15.9438 40.2596C15.425 40.3359 14.9113 40.1663 14.5422 39.7958C13.8995 39.1531 13.8995 38.1049 14.5422 37.4622C14.8536 37.1502 15.2661 36.9784 15.7058 36.9784C16.1447 36.9791 16.558 37.1502 16.8693 37.4622L16.8815 37.4744C17.0154 37.6083 17.1957 37.6831 17.3852 37.6831C17.5747 37.6831 17.7564 37.6083 17.8897 37.4736L22.1805 33.1749C22.4584 32.8971 22.4463 32.436 22.1684 32.1574C21.5264 31.5133 21.5264 30.4659 22.1684 29.8225C22.7905 29.199 23.8749 29.1997 24.4956 29.8218C24.8661 30.193 25.0342 30.7053 24.958 31.2297C24.9252 31.452 25 31.6772 25.1589 31.8361C25.3178 31.9964 25.5416 32.0705 25.766 32.037C26.2854 31.9622 26.7977 32.1289 27.1675 32.5002C27.8103 33.1429 27.8103 34.191 27.1675 34.8337Z" fill="#37475A"/>
<path d="M44.2498 0.20895C43.9712 -0.0696499 43.5208 -0.0696499 43.2422 0.20895C42.9636 0.487549 42.9636 0.937869 43.2422 1.21647L44.4001 2.37433L36.9727 9.80033L34.1667 6.99438C33.8881 6.71578 33.4378 6.71578 33.1592 6.99438C32.8806 7.27298 32.8806 7.7233 33.1592 8.0019L34.5444 9.38706L10.3532 33.5782C8.12802 35.8034 7.34494 38.9264 7.98765 41.7915C7.95772 41.8136 7.92281 41.8257 7.89573 41.8528L3.9362 45.8131C2.12566 47.6229 2.02163 50.5022 3.62126 52.4367L0.20895 55.8498C-0.0696499 56.1284 -0.0696499 56.5787 0.20895 56.8573C0.347893 56.9962 0.530302 57.0661 0.712709 57.0661C0.895117 57.0661 1.07752 56.9962 1.21647 56.8573L4.6359 53.4378C5.53084 54.1511 6.61674 54.5095 7.70406 54.5095C8.96595 54.5095 10.2293 54.0285 11.1905 53.068L15.1507 49.1085C15.1778 49.0814 15.1899 49.0465 15.212 49.0159C15.854 49.1598 16.5074 49.2403 17.1622 49.2403C19.4309 49.2403 21.6989 48.3775 23.4253 46.6503L47.6165 22.4591L49.0016 23.8443C49.1406 23.9832 49.323 24.0531 49.5054 24.0531C49.6878 24.0531 49.8702 23.9832 50.0091 23.8443C50.2877 23.5657 50.2877 23.1154 50.0091 22.8368L47.2032 20.0308L54.6299 12.6041L55.7878 13.762C55.9267 13.9009 56.1091 13.9708 56.2915 13.9708C56.4739 13.9708 56.6563 13.9009 56.7953 13.762C57.0739 13.4834 57.0739 13.0331 56.7953 12.7545L44.2498 0.20895ZM10.183 52.0591C8.81632 53.4257 6.59251 53.4257 5.22588 52.0591L4.94372 51.7769C3.57708 50.4103 3.57708 48.1865 4.94372 46.8199L8.46647 43.2964C8.89755 44.3167 9.52315 45.2744 10.3532 46.1045L10.8983 46.6496C11.7284 47.4797 12.6861 48.1053 13.7064 48.5363L10.183 52.0591ZM43.5066 24.5533L39.8328 20.8795C39.5542 20.6009 39.1039 20.6009 38.8253 20.8795C38.5467 21.1581 38.5467 21.6084 38.8253 21.887L42.4991 25.5608L39.6732 28.3867L36.0001 24.7136C35.7215 24.435 35.2712 24.435 34.9926 24.7136C34.714 24.9922 34.714 25.4425 34.9926 25.7211L38.6657 29.3942L35.8398 32.2201L32.166 28.5463C31.8874 28.2677 31.437 28.2677 31.1584 28.5463C30.8798 28.8249 30.8798 29.2752 31.1584 29.5538L34.8322 33.2276L22.4178 45.642C19.5207 48.5399 14.8044 48.5392 11.9059 45.642L11.3608 45.097C8.46362 42.1991 8.46362 37.4829 11.3608 34.585L35.5519 10.3939L46.6089 21.4509L43.5066 24.5533ZM46.1957 19.0226L37.9802 10.8078L45.4069 3.38114L53.6217 11.5959L46.1957 19.0226Z" fill="#37475A"/>
</svg>
