<svg width="375" height="607" viewBox="0 0 375 607" fill="none" xmlns="http://www.w3.org/2000/svg">
<circle cx="31.7693" cy="138.266" r="50.3188" transform="rotate(41.5742 31.7693 138.266)" stroke="#F8F9FE" stroke-opacity="0.2" stroke-width="5"/>
<circle cx="114.889" cy="154.438" r="17.5941" transform="rotate(41.5742 114.889 154.438)" stroke="#F8F9FE" stroke-opacity="0.2" stroke-width="5"/>
<circle cx="108.056" cy="94.6568" r="17.5941" transform="rotate(41.5742 108.056 94.6568)" stroke="#F8F9FE" stroke-opacity="0.2" stroke-width="5"/>
<circle cx="6.65573" cy="58.4313" r="17.5941" transform="rotate(41.5742 6.65573 58.4313)" stroke="#F8F9FE" stroke-opacity="0.2" stroke-width="5"/>
<circle cx="66.8249" cy="58.0829" r="17.5941" transform="rotate(41.5742 66.8249 58.0829)" stroke="#F8F9FE" stroke-opacity="0.2" stroke-width="5"/>
<path d="M385.21 381.038C391.7 388.015 393.692 398.063 390.353 406.989L244.35 496.235C245.146 496.67 245.955 497.136 246.774 497.608C252.889 501.13 259.585 504.989 266.16 498.873L340.731 429.507C347.193 423.497 344.238 417.247 340.863 410.109C340.468 409.273 340.067 408.425 339.675 407.564L341.95 406.528C341.95 406.528 341.95 406.528 341.95 406.528C337.462 396.671 339.781 385.049 347.711 377.672C357.888 368.205 373.808 368.781 383.275 378.958L385.21 381.038ZM390.353 406.99C388.257 412.59 393.456 418.181 399.191 416.497C408.336 413.812 418.211 416.522 424.704 423.501L426.639 425.582C436.106 435.759 435.53 451.679 425.355 461.143C417.427 468.517 405.665 469.993 396.159 464.804C395.474 464.431 394.743 464.008 393.974 463.565C391.288 462.015 388.151 460.204 385.019 459.297C382.911 458.686 380.635 458.414 378.276 458.876C375.897 459.341 373.611 460.517 371.448 462.53L296.877 531.895C294.809 533.819 293.466 535.878 292.783 538.098C292.103 540.311 292.137 542.503 292.543 544.608C293.161 547.813 294.755 551.176 296.262 554.358C296.639 555.154 297.011 555.938 297.361 556.706C301.849 566.562 299.53 578.185 291.6 585.561C281.425 595.026 265.506 594.45 256.039 584.273L254.103 582.192C247.614 575.216 245.622 565.167 248.96 556.241C251.057 550.64 245.857 545.05 240.119 546.736C230.975 549.421 221.097 546.709 214.607 539.732L212.672 537.652C203.205 527.474 203.781 511.555 213.958 502.088C221.886 494.713 233.648 493.238 243.152 498.429L390.353 406.99Z" stroke="#F8F9FE" stroke-opacity="0.2" stroke-width="5"/>
</svg>
