<svg width="30" height="30" viewBox="0 0 30 30" fill="none" xmlns="http://www.w3.org/2000/svg">
<path d="M14.75 29.5C22.8962 29.5 29.5 22.8962 29.5 14.75C29.5 6.6038 22.8962 0 14.75 0C6.6038 0 0 6.6038 0 14.75C0 22.8962 6.6038 29.5 14.75 29.5Z" fill="#F0F0F0"/>
<path d="M14.75 29.5C22.8962 29.5 29.5 22.8962 29.5 14.75C29.5 6.6038 22.8962 0 14.75 0C6.6038 0 0 6.6038 0 14.75C0 22.8962 6.6038 29.5 14.75 29.5Z" fill="white"/>
<path d="M3.04912 5.7699C1.89049 7.27734 1.01684 9.01478 0.508141 10.9023H8.18148L3.04912 5.7699Z" fill="#0052B4"/>
<path d="M28.9919 10.9023C28.4832 9.01484 27.6095 7.2774 26.4509 5.76996L21.3187 10.9023H28.9919Z" fill="#0052B4"/>
<path d="M0.508141 18.5979C1.0169 20.4853 1.89055 22.2228 3.04912 23.7302L8.18131 18.5979H0.508141Z" fill="#0052B4"/>
<path d="M23.7301 3.04915C22.2227 1.89053 20.4853 1.01688 18.5978 0.508118V8.1814L23.7301 3.04915Z" fill="#0052B4"/>
<path d="M5.76991 26.4508C7.27735 27.6095 9.0148 28.4831 10.9022 28.9919V21.3186L5.76991 26.4508Z" fill="#0052B4"/>
<path d="M10.9022 0.508118C9.01474 1.01688 7.27729 1.89053 5.76991 3.04909L10.9022 8.18134V0.508118Z" fill="#0052B4"/>
<path d="M18.5979 28.9919C20.4853 28.4831 22.2227 27.6095 23.7301 26.4509L18.5979 21.3186V28.9919Z" fill="#0052B4"/>
<path d="M21.3187 18.5979L26.4509 23.7302C27.6095 22.2228 28.4832 20.4853 28.9919 18.5979H21.3187Z" fill="#0052B4"/>
<path d="M29.3751 12.8261H16.674H16.674V0.124856C16.0441 0.0428672 15.4021 0 14.75 0C14.0978 0 13.4559 0.0428672 12.8261 0.124856V12.826V12.826H0.124856C0.0428672 13.4559 0 14.0979 0 14.75C0 15.4022 0.0428672 16.0441 0.124856 16.6739H12.826H12.826V29.3751C13.4559 29.4571 14.0978 29.5 14.75 29.5C15.4021 29.5 16.0441 29.4572 16.6739 29.3751V16.674V16.674H29.3751C29.4571 16.0441 29.5 15.4022 29.5 14.75C29.5 14.0979 29.4571 13.4559 29.3751 12.8261Z" fill="#D80027"/>
<path d="M18.5979 18.5979L25.1798 25.1799C25.4825 24.8773 25.7713 24.5609 26.0468 24.2329L20.4118 18.5979H18.5979V18.5979Z" fill="#D80027"/>
<path d="M10.9022 18.5979H10.902L4.32014 25.1798C4.62275 25.4825 4.93913 25.7713 5.26708 26.0468L10.9022 20.4116V18.5979Z" fill="#D80027"/>
<path d="M10.9022 10.9023V10.9021L4.32019 4.32013C4.01747 4.62273 3.7287 4.93911 3.45317 5.26707L9.0883 10.9022H10.9022V10.9023Z" fill="#D80027"/>
<path d="M18.5979 10.9023L25.1799 4.32018C24.8773 4.01746 24.5609 3.72868 24.2329 3.45322L18.5979 9.08835V10.9023V10.9023Z" fill="#D80027"/>
</svg>
